<svg xmlns="http://www.w3.org/2000/svg" width="112.68" height="11.688" viewBox="0 0 112.68 11.688"><path d="M3.508,0H1.164V-11.375H3.508ZM15.73,0H13.386L8.823-7.484V0H6.48V-11.375H8.823l4.57,7.5v-7.5H15.73ZM25.42-4.648h-4.5V0H18.577V-11.375h7.406v1.9H20.92v2.938h4.5ZM37.486-5.43a6.867,6.867,0,0,1-.594,2.945,4.472,4.472,0,0,1-1.7,1.953,4.7,4.7,0,0,1-2.535.688,4.732,4.732,0,0,1-2.523-.68,4.515,4.515,0,0,1-1.719-1.941,6.67,6.67,0,0,1-.617-2.9V-5.93A6.831,6.831,0,0,1,28.4-8.887a4.508,4.508,0,0,1,1.711-1.961,4.706,4.706,0,0,1,2.527-.684,4.706,4.706,0,0,1,2.527.684A4.508,4.508,0,0,1,36.88-8.887a6.811,6.811,0,0,1,.605,2.949Zm-2.375-.516a4.787,4.787,0,0,0-.641-2.719,2.088,2.088,0,0,0-1.828-.93,2.088,2.088,0,0,0-1.82.918,4.732,4.732,0,0,0-.648,2.691v.555a4.847,4.847,0,0,0,.641,2.7,2.082,2.082,0,0,0,1.844.961,2.064,2.064,0,0,0,1.813-.926,4.819,4.819,0,0,0,.641-2.7ZM44.2-4.164H42.333V0H39.989V-11.375h4.227a4.778,4.778,0,0,1,3.109.9,3.1,3.1,0,0,1,1.094,2.539A3.5,3.5,0,0,1,47.915-6a3.437,3.437,0,0,1-1.527,1.238L48.848-.109V0H46.333Zm-1.867-1.9h1.891a1.936,1.936,0,0,0,1.367-.449,1.606,1.606,0,0,0,.484-1.238,1.719,1.719,0,0,0-.457-1.266,1.9,1.9,0,0,0-1.4-.461H42.333Zm11.73-5.312,2.922,8.25,2.906-8.25h3.078V0H60.617V-3.109l.234-5.367L57.781,0H56.172L53.109-8.469l.234,5.359V0H51V-11.375ZM72.378-2.344H68.269L67.488,0H65L69.23-11.375H71.4L75.659,0H73.167ZM68.9-4.242h2.844L70.316-8.5ZM85.147-9.477H81.662V0H79.319V-9.477H75.881v-1.9h9.266ZM89.775,0H87.431V-11.375h2.344Zm12.316-5.43a6.867,6.867,0,0,1-.594,2.945A4.472,4.472,0,0,1,99.8-.531a4.7,4.7,0,0,1-2.535.688,4.732,4.732,0,0,1-2.523-.68A4.515,4.515,0,0,1,93.02-2.465a6.67,6.67,0,0,1-.617-2.9V-5.93a6.831,6.831,0,0,1,.605-2.957,4.508,4.508,0,0,1,1.711-1.961,4.706,4.706,0,0,1,2.527-.684,4.706,4.706,0,0,1,2.527.684,4.508,4.508,0,0,1,1.711,1.961,6.811,6.811,0,0,1,.605,2.949Zm-2.375-.516a4.787,4.787,0,0,0-.641-2.719,2.088,2.088,0,0,0-1.828-.93,2.088,2.088,0,0,0-1.82.918,4.732,4.732,0,0,0-.648,2.691v.555a4.847,4.847,0,0,0,.641,2.7,2.082,2.082,0,0,0,1.844.961,2.064,2.064,0,0,0,1.813-.926,4.819,4.819,0,0,0,.641-2.7ZM113.844,0H111.5l-4.562-7.484V0h-2.344V-11.375h2.344l4.57,7.5v-7.5h2.336Z" transform="translate(-1.164 11.531)" fill="#ea5429"/></svg>