<svg xmlns="http://www.w3.org/2000/svg" width="447.526" height="142.709" viewBox="0 0 447.526 142.709"><g transform="translate(-1098.667 -9233.488)"><path d="M-198.52-47.44a2.024,2.024,0,0,1,.96.68,4.543,4.543,0,0,1,.56,1.08,1.664,1.664,0,0,1,.08,1.12,4.423,4.423,0,0,1-.4.88A28.658,28.658,0,0,0-200.56-39q-1.4,2.52-2.84,5.32a9.955,9.955,0,0,1,.68,2.44q.2,1.32.36,2.68t.36,2.64a8.726,8.726,0,0,0,.68,2.32,1.76,1.76,0,0,0,1.72.2,13.134,13.134,0,0,1,1.72-.6,59.3,59.3,0,0,0,7.72-2.2q3.64-1.32,7.48-2.84a42.591,42.591,0,0,0,7.04-3.84,35.957,35.957,0,0,0,5.6-4.88,14.557,14.557,0,0,0,3.28-5.76,9.042,9.042,0,0,0-.08-5.2,7.47,7.47,0,0,0-2.48-3.56,14.21,14.21,0,0,0-4.12-2.24,24.83,24.83,0,0,0-5.08-1.2,46.406,46.406,0,0,0-5.4-.4q-2.68-.04-5.08.08l-4,.2a40.519,40.519,0,0,0-8.96,1.92,35.7,35.7,0,0,0-8.32,4.16,8.586,8.586,0,0,0-1.6,1.12q-.72.64-1.44,1.2a14.517,14.517,0,0,1-1.84,1.36,3.82,3.82,0,0,1-1.56.56,3.35,3.35,0,0,1-1.68-.32,11.442,11.442,0,0,1-2.12-1.28,9.755,9.755,0,0,1,.4-1,1.644,1.644,0,0,1,.48-.68q1.6-1.36,3.2-2.64a32.786,32.786,0,0,1,3.44-2.4,39.393,39.393,0,0,1,8.8-3.76q4.48-1.28,9.28-2.16a54.563,54.563,0,0,1,14.44.16,36.15,36.15,0,0,1,13.16,4.48,7.358,7.358,0,0,1,2.56,1.92,9.292,9.292,0,0,1,1.72,2.88,10.83,10.83,0,0,1,.68,3.32,7.138,7.138,0,0,1-.48,3.08A21.851,21.851,0,0,1-165.72-38a30.285,30.285,0,0,1-4.08,4.64,24.118,24.118,0,0,1-4.92,3.48q-2.52,1.32-5.16,2.84a35.324,35.324,0,0,1-4.44,2.08q-2.28.88-4.56,1.56t-4.52,1.24q-2.24.56-4.48,1.28a8.911,8.911,0,0,1-1.28.2,4.311,4.311,0,0,0-1.2.28,56.892,56.892,0,0,0,3.08,8.8,23.708,23.708,0,0,0,4.6,6.72A33.2,33.2,0,0,0-188.32-.8a20.623,20.623,0,0,0,4.92,2.88,33.6,33.6,0,0,0,19.76,1.76,2.6,2.6,0,0,0,1.2-.52A2.721,2.721,0,0,1-161,2.8a4.364,4.364,0,0,1-.88,1.6q-1.6.96-3.16,1.72a5.865,5.865,0,0,1-3.4.52q-2.8,0-5.48.04a22.065,22.065,0,0,1-5.4-.6q-13.84-2.88-22-17.28a24.687,24.687,0,0,1-1.96-4.04q-.84-2.2-1.96-4.68h-4.8a12.31,12.31,0,0,1-.84,1.68,14.87,14.87,0,0,0-.84,1.6q-2.08,4.08-4.32,8t-4.48,8l-.24.4a1,1,0,0,0-.52.12q-.2.12-.44-.12a.8.8,0,0,0-.12-.48q-.12-.16.12-.4.4-1.36.68-2.6a11.774,11.774,0,0,0,.28-2.6,2.457,2.457,0,0,1,.16-.84,1.715,1.715,0,0,1,.32-.6,7.048,7.048,0,0,0,1.48-3.08A9.9,9.9,0,0,1-217.56-14a30.685,30.685,0,0,0,1.36-2.96q.64-1.6,1.36-3.2a24.072,24.072,0,0,1-3.4-1.8,34.181,34.181,0,0,0-3.16-1.8,5.368,5.368,0,0,1-.96-1.84h1.6q1.76.48,3.36,1.04t3.28,1.04a4.588,4.588,0,0,0,.56-.04,1.28,1.28,0,0,0,.56-.2,44.673,44.673,0,0,1,2.44-3.8,19.386,19.386,0,0,0,2.12-3.8,20.637,20.637,0,0,1,1-2.16,11.779,11.779,0,0,1,1.32-1.92,16.786,16.786,0,0,0,1.76-3l1.6-3.44q.8-1.72,1.6-3.24a8.41,8.41,0,0,1,1.68-2.32Zm-7.76,22.72a.771.771,0,0,1-.32-.4,1.259,1.259,0,0,0-.32-.48l-.24.24a1.4,1.4,0,0,0-.16.4q0,.48.4.48l.16-.08A.652.652,0,0,1-206.28-24.72Zm43.76,13.36a3.687,3.687,0,0,1-1.44-.24l-.32-.16a2.479,2.479,0,0,0-.48-.16.931.931,0,0,1-.24-.16.93.93,0,0,0-.24-.16q-.4-.4-.76-.72a2.626,2.626,0,0,1-.6-.8,1.875,1.875,0,0,1,0-1.52,11.789,11.789,0,0,1,.4-1.28q.24-.64.48-1.36.08-.24.2-.56a2.743,2.743,0,0,1,.28-.56,6.756,6.756,0,0,0,.64-1.76,2.088,2.088,0,0,1,.64-1.28,5.126,5.126,0,0,1,1.52-2q.48-.48.92-.96a9.493,9.493,0,0,1,.92-.88,5.23,5.23,0,0,0,.56-.32q.48-.16.92-.28t1.08-.28a.794.794,0,0,1,.36-.08h.36a1.484,1.484,0,0,1,.88.4,11.087,11.087,0,0,1,1.12,1.12,5.486,5.486,0,0,1,.56,1.12,1.388,1.388,0,0,1-.16,1.28,9.6,9.6,0,0,1-1.12,1.24q-.64.6-1.28,1.16-.8.64-1.6,1.32t-1.68,1.32a1.788,1.788,0,0,1-1.28.32,1.114,1.114,0,0,0-.48.08,1.649,1.649,0,0,0-.64.48,2.456,2.456,0,0,0-.32.96,3.538,3.538,0,0,0-.24,2,1.938,1.938,0,0,1,.24.28,1.175,1.175,0,0,0,.32.28,2.454,2.454,0,0,0,1.04.08,7.3,7.3,0,0,0,1.92-.56,16.165,16.165,0,0,0,2.04-.88q.92-.48,1.88-1.04,1.04-.64,2.04-1.24t2.04-1.24a2.539,2.539,0,0,1,.72-.16.425.425,0,0,1,.52.04q.28.2.2.36a3.76,3.76,0,0,1-1.2,2,13.527,13.527,0,0,0-1.72,1.12q-.84.64-1.56,1.28-.64.4-1.32.84a5.75,5.75,0,0,1-1.48.68q-.56.24-1.16.44a3.9,3.9,0,0,1-1.24.2,8.4,8.4,0,0,1-1.12.24A3.94,3.94,0,0,1-162.52-11.36Zm5.04-12.32a.439.439,0,0,1-.16-.28q0-.12-.08-.12h-.48a1.716,1.716,0,0,1-.32.4q-.8.8-1.56,1.68a8.151,8.151,0,0,0-1.24,1.92q0,.32.08.32h.24q.4-.4.8-.76t.8-.76a3.606,3.606,0,0,0,1.04-.96,13.177,13.177,0,0,0,.72-1.12A.461.461,0,0,0-157.48-23.68Zm5.12,20.08a3.46,3.46,0,0,0,.12-.76,5.457,5.457,0,0,1,.2-1.08q.08-1.04.16-2a7.258,7.258,0,0,1,.48-2,4.271,4.271,0,0,1,.2-1.28q.2-.64.44-1.28.24-.88.56-1.72t.56-1.72q.96-2.8,2.24-5.68.24-.56.56-1.24t.56-1.32a11.13,11.13,0,0,1,.8-1.72q.48-.84.88-1.72.56-1.12,1.12-2.12t1.12-2.12q.4-.72.84-1.56a8.546,8.546,0,0,0,.68-1.72,1.8,1.8,0,0,0,.32-.64,3.552,3.552,0,0,1,.32-.64.986.986,0,0,0,.16-.56,6.389,6.389,0,0,1,1.2-2.32,11.871,11.871,0,0,0,.88-1.36q.4-.72.88-1.44.4-.64.8-1.4t.8-1.48a6,6,0,0,0,.64-1.12q.88-1.2,1.68-2.44a26.546,26.546,0,0,0,1.44-2.52,1,1,0,0,1,.28-.32.242.242,0,0,1,.36,0h.76a3.88,3.88,0,0,1,.76.08,1.419,1.419,0,0,1,.8.64,1.217,1.217,0,0,1,.16,1.2,3.879,3.879,0,0,1-.28.84,8.332,8.332,0,0,1-.44.84q-.88,1.28-1.72,2.64t-1.72,2.56q-.56.88-1.12,1.64a9.112,9.112,0,0,0-.96,1.64,3.664,3.664,0,0,1-.2.48,1.522,1.522,0,0,1-.28.4,22.8,22.8,0,0,0-1.8,2.72q-.76,1.36-1.64,2.88-.8,1.36-1.64,2.8a25.536,25.536,0,0,0-1.48,2.96,5.292,5.292,0,0,1-.6,1.16,3.517,3.517,0,0,0-.52,1.16.633.633,0,0,0-.08.4.5.5,0,0,0,.36.52,1.974,1.974,0,0,0,.6.12h.64a8.626,8.626,0,0,1,3.2.12,9.969,9.969,0,0,0,3.2.2,2.268,2.268,0,0,0,1.2,0q1.52.08,3,.08a26.423,26.423,0,0,0,2.92-.16.671.671,0,0,1,.64,0q.48,0,.32.48a1.392,1.392,0,0,0-.16.56.481.481,0,0,1-.32.32,2.195,2.195,0,0,1-.28.12.788.788,0,0,0-.28.2l-1.92.32-1.92.32a11.3,11.3,0,0,1-3.56-.24,14.973,14.973,0,0,0-3.4-.4,1.175,1.175,0,0,0-.44.08,2.452,2.452,0,0,0-.44.24l.08.36q.08.36.2.76a6.39,6.39,0,0,0,.28.76,1.782,1.782,0,0,1,.16.44,17.031,17.031,0,0,1,.64,3.36,23.936,23.936,0,0,1,.08,3.36,20.278,20.278,0,0,1-.52,4.88,39.42,39.42,0,0,1-1.4,4.4q-.24.64-.52,1.24a11.625,11.625,0,0,1-.68,1.24,3.681,3.681,0,0,1-.68,1.04,10.99,10.99,0,0,0-.84,1.04,10.8,10.8,0,0,1-1,1.16,5.553,5.553,0,0,1-1.24.92,2.605,2.605,0,0,1-1.76.48,1.664,1.664,0,0,1-.64-.08,2.289,2.289,0,0,1-1.2-.4,9.392,9.392,0,0,0-.88-.48,2.878,2.878,0,0,1-.44-.36l-.36-.36a5.881,5.881,0,0,1-.8-1.2q-.32-.64-.72-1.28a2.615,2.615,0,0,0-.16-.28.493.493,0,0,1-.08-.28,8.838,8.838,0,0,1-.16-1.56Zm2.48.56v.96a4.07,4.07,0,0,0,.08.8,6.581,6.581,0,0,0,.56,2.48,3.4,3.4,0,0,0,.56.88,1.4,1.4,0,0,0,1.2.24.314.314,0,0,1,.32-.24,5.58,5.58,0,0,0,1.12-.96,6.015,6.015,0,0,1,.84-.96,2.618,2.618,0,0,0,.68-1.04l.24-.24a4.422,4.422,0,0,1,.4-.88q.48-.96.92-1.92t.84-2.08q.32-1.12.6-2.6t.44-3a21.927,21.927,0,0,0,.12-2.92,8.291,8.291,0,0,0-.36-2.36,2.974,2.974,0,0,0-.08-.72q-.08-.32-.2-1.12t-.28-1.64a6.934,6.934,0,0,0-.44-1.48q-.28-.64-.6-.64a1.4,1.4,0,0,0-1.28.64.071.071,0,0,1-.08.08q-.64,1.28-1.16,2.44t-.92,2.36q-.16.4-.24.68a1.845,1.845,0,0,1-.24.52,28.758,28.758,0,0,0-1.04,3.04,32.354,32.354,0,0,0-1.68,7.04q-.08.72-.16,1.4T-149.88-3.04Zm35.68-21.52a2.351,2.351,0,0,1-.08.56q0,.64.72.64h.8a7.371,7.371,0,0,1,1.72-.16,7.371,7.371,0,0,0,1.72-.16h1.12a.461.461,0,0,1,.16.32q.32.48-.08.72-.08.24-.2.28a.788.788,0,0,0-.28.2q-.32.32-.48.32a16.275,16.275,0,0,1-2.04.4,13.231,13.231,0,0,0-1.96.4,6.171,6.171,0,0,1-2.48.56,2.616,2.616,0,0,0-.28.16,2.615,2.615,0,0,1-.28.16.788.788,0,0,0-.2.28.5.5,0,0,1-.12.2,2.491,2.491,0,0,0-.32.52,1.066,1.066,0,0,1-.24.36,11.119,11.119,0,0,1-2.52,3.36q-1.64,1.52-3,2.56a3.156,3.156,0,0,1-1.6.64h-.56a1.289,1.289,0,0,1-.56-.16,2.694,2.694,0,0,1-1.44-.8,3.656,3.656,0,0,1-.72-1.44.614.614,0,0,1-.08-.24,1.838,1.838,0,0,1,.08-1.2,1.4,1.4,0,0,1,.2-.4.648.648,0,0,0,.12-.4,5.315,5.315,0,0,0,.4-.96q.32-1.12.6-1.84t.76-1.84l.48-1.12a10.964,10.964,0,0,1,.56-1.12,10,10,0,0,1,.68-1.04q.36-.48.76-.96.4-.64.72-1.2t.72-1.2a1.225,1.225,0,0,1,.88-.56,1.189,1.189,0,0,1,.88-.32q.88-.16,2-.32a1.957,1.957,0,0,1,1.76.48.708.708,0,0,0,.32.2.708.708,0,0,1,.32.2q.24.4.4.72t.4.72a4.944,4.944,0,0,1,.24.76,2.214,2.214,0,0,1,0,.84Zm-4.64,3.36a.633.633,0,0,0-.08-.4,5.009,5.009,0,0,1-.64-.96l-.48-.96a.866.866,0,0,0-.4-.32.633.633,0,0,0-.4-.08.655.655,0,0,0-.4.24,13.417,13.417,0,0,0-.8,1.28,22.448,22.448,0,0,0-1.36,2.88q-.48,1.28-.96,3.04v.24a.451.451,0,0,0-.04.32.189.189,0,0,0,.2.16q.24.16.4,0a6.654,6.654,0,0,0,2.88-2.16,25.869,25.869,0,0,0,2-2.88A.891.891,0,0,0-118.84-21.2Zm2.56-5.52a.461.461,0,0,0-.16-.32q-.32,0-.32.08a3.6,3.6,0,0,0-1.36,2.32.364.364,0,0,0-.04.28.886.886,0,0,1,.04.28,1.4,1.4,0,0,0,.16.4.5.5,0,0,0,.36.16.5.5,0,0,0,.36-.16,3.179,3.179,0,0,0,.4-.48,2.56,2.56,0,0,0,.4-1.12l.16-1.28Zm7.2,10.8q1.12-2.64,2.08-5.32a19.464,19.464,0,0,0,1.12-5.48q.56-.32.92-.48a1.13,1.13,0,0,1,.72-.08,2.017,2.017,0,0,1,.8.44q.44.36,1.08,1a3.47,3.47,0,0,0,.88-.68,7.661,7.661,0,0,0,.64-.84q1.12-.8,2.2-1.52a7.42,7.42,0,0,1,2.44-1.04,11.7,11.7,0,0,1,2.12-.12,4.228,4.228,0,0,1,1.88.52,1.134,1.134,0,0,1,.8,1.12q-.32.8-.8.8h-.72a1.965,1.965,0,0,1-.72-.16,8.824,8.824,0,0,0-1.88.2,3.291,3.291,0,0,0-1.72,1.08,55.056,55.056,0,0,0-4.24,4.4,20.465,20.465,0,0,0-3.28,5.28,4.967,4.967,0,0,1-.36.84q-.2.36-.52.84-.4.96-1.28.64a6.566,6.566,0,0,1-1.16-.4A2.508,2.508,0,0,1-109.08-15.92Zm16.48,2a3.147,3.147,0,0,1,.56-1.68q.4-.64.8-1.44t.8-1.44a5.5,5.5,0,0,1,.32-.68q.16-.28.4-.68a3.343,3.343,0,0,1,.16-.56,7.016,7.016,0,0,1,.6-1.88,16.3,16.3,0,0,0,.76-1.88,1.689,1.689,0,0,1,.56-.8.623.623,0,0,1,.64-.4,2.8,2.8,0,0,1,.88-.16q.48-.16.64.4a1.9,1.9,0,0,1,.32,1.2v.4a.388.388,0,0,0,.28.36.517.517,0,0,0,.52-.04,1.717,1.717,0,0,1,.56-.32l.4-.4a2.135,2.135,0,0,1,.56-.4.543.543,0,0,1,.4-.16,1.51,1.51,0,0,0,.48-.08,4.766,4.766,0,0,1,1.04-.08A2.118,2.118,0,0,1-79-23.6a.89.89,0,0,0,.08.4.494.494,0,0,0,.64.16,2.1,2.1,0,0,0,.32-.2,2.1,2.1,0,0,1,.32-.2l1.2-1.2a8.128,8.128,0,0,0,.84-.8q.36-.4.76-.8a1.393,1.393,0,0,1,.44-.52q.28-.2.52-.36.64-.4,1.28-.84t1.28-.92a2.656,2.656,0,0,1,2-.32,1.256,1.256,0,0,1,.96.72v.4a14.168,14.168,0,0,1-.36,1.44,7.331,7.331,0,0,1-.6,1.36q-.72,1.52-1.36,3.04a30.31,30.31,0,0,1-1.44,2.96q-.4,1.04-.84,2.08t-.92,2.08q-.4.8-.72,1.56t-.72,1.64a1.094,1.094,0,0,1-.04.24,1.315,1.315,0,0,0-.04.32q0,.32.16.32.08.16.24,0a1.392,1.392,0,0,0,.56-.24q.88-.64,1.72-1.28A16.256,16.256,0,0,0-71.08-14a.627.627,0,0,1,.16-.12.433.433,0,0,0,.16-.2A7.33,7.33,0,0,1-69.4-15.4a7.331,7.331,0,0,0,1.36-1.08,14.58,14.58,0,0,1,1.36-1.2q.72-.56,1.36-1.12a4.939,4.939,0,0,0,.88-.56,2.707,2.707,0,0,1,.96-.48h.16q.32.16.16.32a.557.557,0,0,1-.04.24l-.12.24a1.377,1.377,0,0,1-.32.88,10.281,10.281,0,0,1-1.44,1.6,18.328,18.328,0,0,0-1.44,1.44,5.7,5.7,0,0,0-1.16.96,10.937,10.937,0,0,1-1,.96q-.96.96-1.88,1.84t-1.88,1.84A12.468,12.468,0,0,1-74.92-7.2a2.32,2.32,0,0,1-.84.44,9.317,9.317,0,0,1-.92.2,1.6,1.6,0,0,1-1.28-.56,2.79,2.79,0,0,1-.88-3.12,7.2,7.2,0,0,1,.72-1.68q.4-.8.8-1.56t.8-1.64q.4-.72.76-1.48t.76-1.48q.16-.4.32-.76a3.606,3.606,0,0,0,.24-.76q.4-.88.72-1.72t.72-1.72a1.8,1.8,0,0,0,.32-.64,1.373,1.373,0,0,0,.08-.56q0-.16-.2-.24a.424.424,0,0,0-.36,0,.461.461,0,0,0-.32.16q-.4.32-.68.56t-.6.56a33.609,33.609,0,0,0-2.6,2.56q-1.24,1.36-2.44,2.72-.4.56-.84,1.08t-.84,1q-.32.4-.6.76t-.6.76a3.487,3.487,0,0,1-.96,1.04,1.368,1.368,0,0,1-1.76,0,3.042,3.042,0,0,1-.64-.68,3.505,3.505,0,0,1-.4-.84q0-.32.08-.32a7.753,7.753,0,0,0,.28-.84,5.025,5.025,0,0,1,.36-.92,5.57,5.57,0,0,0,.32-1.36.269.269,0,0,0-.12-.24q-.12-.08-.2,0a.967.967,0,0,0-.96.48,7.063,7.063,0,0,0-.72.84,4.543,4.543,0,0,0-.56,1.08q-.32.48-.6.96a9.45,9.45,0,0,0-.52,1.04,5.874,5.874,0,0,1-1.12,1.52.624.624,0,0,1-.52.36,1.2,1.2,0,0,1-.68-.12.786.786,0,0,1-.72-.4A1.628,1.628,0,0,1-92.6-13.92ZM-6.2-47.44a2.024,2.024,0,0,1,.96.68,4.543,4.543,0,0,1,.56,1.08,1.664,1.664,0,0,1,.08,1.12,4.422,4.422,0,0,1-.4.88A28.658,28.658,0,0,0-8.24-39q-1.4,2.52-2.84,5.32a9.954,9.954,0,0,1,.68,2.44q.2,1.32.36,2.68t.36,2.64A8.726,8.726,0,0,0-9-23.6a1.76,1.76,0,0,0,1.72.2A13.135,13.135,0,0,1-5.56-24a59.3,59.3,0,0,0,7.72-2.2q3.64-1.32,7.48-2.84a42.591,42.591,0,0,0,7.04-3.84,35.957,35.957,0,0,0,5.6-4.88,14.557,14.557,0,0,0,3.28-5.76,9.042,9.042,0,0,0-.08-5.2A7.47,7.47,0,0,0,23-52.28a14.21,14.21,0,0,0-4.12-2.24,24.83,24.83,0,0,0-5.08-1.2,46.406,46.406,0,0,0-5.4-.4q-2.68-.04-5.08.08l-4,.2a40.52,40.52,0,0,0-8.96,1.92,35.7,35.7,0,0,0-8.32,4.16,8.586,8.586,0,0,0-1.6,1.12q-.72.64-1.44,1.2a14.516,14.516,0,0,1-1.84,1.36,3.82,3.82,0,0,1-1.56.56,3.35,3.35,0,0,1-1.68-.32,11.442,11.442,0,0,1-2.12-1.28,9.758,9.758,0,0,1,.4-1,1.644,1.644,0,0,1,.48-.68q1.6-1.36,3.2-2.64a32.786,32.786,0,0,1,3.44-2.4,39.393,39.393,0,0,1,8.8-3.76q4.48-1.28,9.28-2.16a54.563,54.563,0,0,1,14.44.16A36.15,36.15,0,0,1,25-55.12a7.358,7.358,0,0,1,2.56,1.92,9.292,9.292,0,0,1,1.72,2.88A10.83,10.83,0,0,1,29.96-47a7.138,7.138,0,0,1-.48,3.08A21.851,21.851,0,0,1,26.6-38a30.285,30.285,0,0,1-4.08,4.64,24.118,24.118,0,0,1-4.92,3.48q-2.52,1.32-5.16,2.84A35.324,35.324,0,0,1,8-24.96q-2.28.88-4.56,1.56t-4.52,1.24q-2.24.56-4.48,1.28a8.911,8.911,0,0,1-1.28.2,4.311,4.311,0,0,0-1.2.28,56.892,56.892,0,0,0,3.08,8.8A23.708,23.708,0,0,0-.36-4.88,33.2,33.2,0,0,0,4-.8,20.623,20.623,0,0,0,8.92,2.08,33.6,33.6,0,0,0,28.68,3.84a2.6,2.6,0,0,0,1.2-.52,2.721,2.721,0,0,1,1.44-.52,4.364,4.364,0,0,1-.88,1.6q-1.6.96-3.16,1.72a5.865,5.865,0,0,1-3.4.52q-2.8,0-5.48.04a22.065,22.065,0,0,1-5.4-.6Q-.84,3.2-9-11.2a24.685,24.685,0,0,1-1.96-4.04q-.84-2.2-1.96-4.68h-4.8a12.311,12.311,0,0,1-.84,1.68,14.868,14.868,0,0,0-.84,1.6q-2.08,4.08-4.32,8t-4.48,8l-.24.4a1,1,0,0,0-.52.12q-.2.12-.44-.12a.8.8,0,0,0-.12-.48q-.12-.16.12-.4.4-1.36.68-2.6a11.773,11.773,0,0,0,.28-2.6,2.457,2.457,0,0,1,.16-.84,1.714,1.714,0,0,1,.32-.6,7.048,7.048,0,0,0,1.48-3.08A9.9,9.9,0,0,1-25.24-14a30.685,30.685,0,0,0,1.36-2.96q.64-1.6,1.36-3.2a24.073,24.073,0,0,1-3.4-1.8,34.182,34.182,0,0,0-3.16-1.8,5.368,5.368,0,0,1-.96-1.84h1.6q1.76.48,3.36,1.04t3.28,1.04a4.588,4.588,0,0,0,.56-.04,1.28,1.28,0,0,0,.56-.2,44.674,44.674,0,0,1,2.44-3.8,19.386,19.386,0,0,0,2.12-3.8,20.638,20.638,0,0,1,1-2.16,11.78,11.78,0,0,1,1.32-1.92,16.786,16.786,0,0,0,1.76-3l1.6-3.44q.8-1.72,1.6-3.24a8.411,8.411,0,0,1,1.68-2.32Zm-7.76,22.72a.771.771,0,0,1-.32-.4,1.259,1.259,0,0,0-.32-.48l-.24.24a1.4,1.4,0,0,0-.16.4q0,.48.4.48l.16-.08A.652.652,0,0,1-13.96-24.72ZM29.8-11.36a3.687,3.687,0,0,1-1.44-.24l-.32-.16a2.48,2.48,0,0,0-.48-.16.931.931,0,0,1-.24-.16.931.931,0,0,0-.24-.16q-.4-.4-.76-.72a2.626,2.626,0,0,1-.6-.8,1.875,1.875,0,0,1,0-1.52,11.785,11.785,0,0,1,.4-1.28q.24-.64.48-1.36.08-.24.2-.56a2.743,2.743,0,0,1,.28-.56,6.755,6.755,0,0,0,.64-1.76,2.088,2.088,0,0,1,.64-1.28,5.126,5.126,0,0,1,1.52-2q.48-.48.92-.96a9.492,9.492,0,0,1,.92-.88,5.23,5.23,0,0,0,.56-.32q.48-.16.92-.28t1.08-.28a.794.794,0,0,1,.36-.08H35a1.484,1.484,0,0,1,.88.4A11.087,11.087,0,0,1,37-25.36a5.486,5.486,0,0,1,.56,1.12,1.388,1.388,0,0,1-.16,1.28,9.6,9.6,0,0,1-1.12,1.24q-.64.6-1.28,1.16-.8.64-1.6,1.32t-1.68,1.32a1.788,1.788,0,0,1-1.28.32,1.114,1.114,0,0,0-.48.08,1.649,1.649,0,0,0-.64.48,2.456,2.456,0,0,0-.32.96,3.537,3.537,0,0,0-.24,2,1.939,1.939,0,0,1,.24.28,1.175,1.175,0,0,0,.32.28,2.454,2.454,0,0,0,1.04.08A7.3,7.3,0,0,0,32.28-14a16.166,16.166,0,0,0,2.04-.88q.92-.48,1.88-1.04,1.04-.64,2.04-1.24t2.04-1.24a2.539,2.539,0,0,1,.72-.16.425.425,0,0,1,.52.04q.28.2.2.36a3.76,3.76,0,0,1-1.2,2,13.528,13.528,0,0,0-1.72,1.12q-.84.64-1.56,1.28-.64.4-1.32.84a5.75,5.75,0,0,1-1.48.68q-.56.24-1.16.44a3.9,3.9,0,0,1-1.24.2,8.4,8.4,0,0,1-1.12.24A3.94,3.94,0,0,1,29.8-11.36Zm5.04-12.32a.439.439,0,0,1-.16-.28q0-.12-.08-.12h-.48a1.716,1.716,0,0,1-.32.4q-.8.8-1.56,1.68A8.152,8.152,0,0,0,31-20.08q0,.32.08.32h.24q.4-.4.8-.76t.8-.76a3.606,3.606,0,0,0,1.04-.96,13.177,13.177,0,0,0,.72-1.12A.461.461,0,0,0,34.84-23.68ZM52.76-14.4q.88-.56,1.8-1.12a11.517,11.517,0,0,0,1.72-1.28,15.042,15.042,0,0,1,2.12-1.32,20.01,20.01,0,0,0,2.2-1.32q.32-.16.68-.36a6.644,6.644,0,0,1,.76-.36q.4-.16.72-.32a6.208,6.208,0,0,1,.8-.32q.32-.08.16.24a.515.515,0,0,1,0,.4,3.1,3.1,0,0,0-.16.4l-1.68,1.28q-.24.16-.52.36t-.52.36L57.8-14.88q-.96.88-1.96,1.76t-2.12,1.76a5.067,5.067,0,0,0-.76.56q-.36.32-.76.64-.32.24-.6.48a2.446,2.446,0,0,1-.44.32,1.671,1.671,0,0,1-1.76-.16L49-9.84a7.537,7.537,0,0,1-.72-1.04,2.744,2.744,0,0,1,.08-1.44l.32-1.36q.4-1.12.72-2.16A21.7,21.7,0,0,1,50.2-18l.72-2,.16-.8a.513.513,0,0,0-.32-.48.89.89,0,0,0-.4.08l-1.92,1.92a6.409,6.409,0,0,1-1.08,1,3.551,3.551,0,0,1-1.24.6,3.914,3.914,0,0,1-.4.24.906.906,0,0,0-.32.32,2.217,2.217,0,0,1-1.12.88l-.56.24q-.72.32-1.04-.48a1.5,1.5,0,0,1-.16-1.2,10.909,10.909,0,0,0,.52-1.2q.2-.56.44-1.12a10.962,10.962,0,0,0,.72-1.36,12.782,12.782,0,0,0,.56-1.52A3.556,3.556,0,0,1,45.24-24q.24-.72.56-1.44a12.782,12.782,0,0,0,.56-1.52,6.717,6.717,0,0,1,.36-.88q.2-.4.36-.8a.687.687,0,0,1,.72-.4h.8a3.693,3.693,0,0,1,.52.04.612.612,0,0,1,.44.28,1.225,1.225,0,0,1,.56,1.28,1.851,1.851,0,0,1-.16.76,1.851,1.851,0,0,0-.16.76.322.322,0,0,0,.32.16.891.891,0,0,0,.4-.08,8.065,8.065,0,0,1,1.4-1.12,8.065,8.065,0,0,0,1.4-1.12,3.4,3.4,0,0,1,2-.56,1.575,1.575,0,0,1,1.28.48,2.615,2.615,0,0,0,.16.28.493.493,0,0,1,.08.28q.24.48.16.64a8.3,8.3,0,0,1-.32,1.04l-2.8,6.08-1.44,3.68a2.611,2.611,0,0,0-.24,1.6.212.212,0,0,0,.24.24h.16v.08ZM77.24-24.56a2.351,2.351,0,0,1-.08.56q0,.64.72.64h.8a7.371,7.371,0,0,1,1.72-.16,7.371,7.371,0,0,0,1.72-.16h1.12a.461.461,0,0,1,.16.32q.32.48-.08.72-.08.24-.2.28a.788.788,0,0,0-.28.2q-.32.32-.48.32a16.275,16.275,0,0,1-2.04.4,13.231,13.231,0,0,0-1.96.4,6.171,6.171,0,0,1-2.48.56,2.616,2.616,0,0,0-.28.16,2.615,2.615,0,0,1-.28.16.788.788,0,0,0-.2.28.5.5,0,0,1-.12.2,2.491,2.491,0,0,0-.32.52,1.066,1.066,0,0,1-.24.36,11.119,11.119,0,0,1-2.52,3.36q-1.64,1.52-3,2.56a3.156,3.156,0,0,1-1.6.64h-.56a1.289,1.289,0,0,1-.56-.16,2.694,2.694,0,0,1-1.44-.8,3.656,3.656,0,0,1-.72-1.44.614.614,0,0,1-.08-.24,1.838,1.838,0,0,1,.08-1.2,1.4,1.4,0,0,1,.2-.4.648.648,0,0,0,.12-.4,5.315,5.315,0,0,0,.4-.96q.32-1.12.6-1.84t.76-1.84l.48-1.12a10.964,10.964,0,0,1,.56-1.12,10,10,0,0,1,.68-1.04q.36-.48.76-.96.4-.64.72-1.2t.72-1.2a1.225,1.225,0,0,1,.88-.56,1.189,1.189,0,0,1,.88-.32q.88-.16,2-.32a1.957,1.957,0,0,1,1.76.48.708.708,0,0,0,.32.2.708.708,0,0,1,.32.2q.24.4.4.72t.4.72a4.944,4.944,0,0,1,.24.76,2.214,2.214,0,0,1,0,.84ZM72.6-21.2a.633.633,0,0,0-.08-.4,5.009,5.009,0,0,1-.64-.96l-.48-.96a.866.866,0,0,0-.4-.32.633.633,0,0,0-.4-.08.655.655,0,0,0-.4.24,13.417,13.417,0,0,0-.8,1.28,22.448,22.448,0,0,0-1.36,2.88q-.48,1.28-.96,3.04v.24a.451.451,0,0,0-.04.32.189.189,0,0,0,.2.16q.24.16.4,0a6.654,6.654,0,0,0,2.88-2.16,25.869,25.869,0,0,0,2-2.88A.891.891,0,0,0,72.6-21.2Zm2.56-5.52a.461.461,0,0,0-.16-.32q-.32,0-.32.08a3.6,3.6,0,0,0-1.36,2.32.364.364,0,0,0-.04.28.886.886,0,0,1,.04.28,1.4,1.4,0,0,0,.16.4.5.5,0,0,0,.36.16.5.5,0,0,0,.36-.16,3.179,3.179,0,0,0,.4-.48,2.56,2.56,0,0,0,.4-1.12l.16-1.28ZM89.32-28.4a3.656,3.656,0,0,1,.28,1.56q-.04.76-.04,1.4a22.349,22.349,0,0,0-.56,3.2q-.16,1.6-.4,3.04-.16.88-.28,1.84a7.838,7.838,0,0,0,.04,2.08,5.673,5.673,0,0,1,.72-.24,1.014,1.014,0,0,0,.48-.24,36.951,36.951,0,0,1,3.12-3.36,22.454,22.454,0,0,0,2.96-3.44q1.04-1.52,1.96-2.92A10.505,10.505,0,0,1,99.96-28a1,1,0,0,1,.44-.24,2.107,2.107,0,0,0,.68-.4,1.241,1.241,0,0,1-.24.88,8.585,8.585,0,0,1-.76,1.48q-.44.68-.92,1.56-.4.64-.88,1.32a2.771,2.771,0,0,0-.48,1.64.71.71,0,0,1-.08.32.71.71,0,0,0-.08.32,32.888,32.888,0,0,0-1.96,2.68q-.92,1.4-1.72,2.68-.88.88-1.68,1.72a5.738,5.738,0,0,1-1.92,1.32,4.671,4.671,0,0,1-1.68.48,3.082,3.082,0,0,1-1.84-.48,6.565,6.565,0,0,1-1.08-1,2.1,2.1,0,0,1-.44-1.4,15.42,15.42,0,0,1,0-3.84,68.674,68.674,0,0,1,1.12-7.12,2.657,2.657,0,0,0,.2-.48,1.315,1.315,0,0,0,.04-.32Q87-28,87.4-28.2A5.487,5.487,0,0,1,89.32-28.4ZM116.6-13.36a6.283,6.283,0,0,1-2-.32,2.1,2.1,0,0,1-.32-.2,2.1,2.1,0,0,0-.32-.2,2.316,2.316,0,0,1-.64-1.68,4.243,4.243,0,0,1,.24-.88,1.165,1.165,0,0,0,.08-.72.283.283,0,0,0-.32-.32.23.23,0,0,1-.16.08.23.23,0,0,0-.16.08,4.932,4.932,0,0,1-1.12,1.2q-.4.32-.72.56a8.43,8.43,0,0,1-.72.48,9.212,9.212,0,0,0-.76.68,3.2,3.2,0,0,1-.84.6,5.634,5.634,0,0,1-4.16,1.12,2.416,2.416,0,0,1-1.44-.64,4.867,4.867,0,0,0-.56-.72,1.025,1.025,0,0,1-.08-1.36q.24-.56.44-1.12a3.542,3.542,0,0,0,.2-1.2,1.911,1.911,0,0,1,.48-.96,10.174,10.174,0,0,1,.8-1.12,8.146,8.146,0,0,1,.96-.96q.4-.4.8-.84t.8-.84a2.786,2.786,0,0,1,.56-.56,3.621,3.621,0,0,0,.64-.64,5.3,5.3,0,0,0,.68-.64q.28-.32.6-.64a6.512,6.512,0,0,1,2.56-1.76l2.16-.96a1.28,1.28,0,0,1,.56-.2,5.4,5.4,0,0,0,.64-.12,1.185,1.185,0,0,1,1.04,0h.16a3.4,3.4,0,0,0,1.08.32q.6.08,1.16.16a1.573,1.573,0,0,1,1.08.6,1.179,1.179,0,0,1,.12,1,4.97,4.97,0,0,1-.56,2.24,13.324,13.324,0,0,1-.56,1.28,6.253,6.253,0,0,0-.48,1.28q-.16.4-.32.76t-.32.76l-.48,1.28q-.24.64-.4,1.2v.56q0,.08.16.2a.532.532,0,0,0,.32.12,2.081,2.081,0,0,0,.64-.08q.64-.24,1.32-.56t1.32-.64q.96-.64,2-1.32t2-1.32a20.148,20.148,0,0,1,2.72-1.2,1.773,1.773,0,0,1,.56-.08.461.461,0,0,1,.32.16.461.461,0,0,1,.16.32l-.48.72-.96.96q-.48.48-.96.88a20.886,20.886,0,0,0-2.08,1.52q-.96.8-2,1.52a13.176,13.176,0,0,1-1.2.76q-.64.36-1.28.76A6.23,6.23,0,0,1,116.6-13.36Zm-.08-12.4q0-.48-.4-.48a1.289,1.289,0,0,1-.56.16.86.86,0,0,0-.48.16,4.267,4.267,0,0,0-1.12.44,7.073,7.073,0,0,0-.96.68,12.016,12.016,0,0,0-1.28,1.12l-1.28,1.28q-.96,1.12-1.84,2.36t-1.76,2.44v.32q-.08.16-.04.2a.163.163,0,0,1,.04.12h.56a1.88,1.88,0,0,1,.48-.36,1.88,1.88,0,0,0,.48-.36q1.04-.88,2.08-1.8t2-1.8q.88-.8,1.72-1.56t1.64-1.56a5.453,5.453,0,0,0,.4-.44,2.427,2.427,0,0,0,.32-.6q.08-.16.04-.2A.163.163,0,0,1,116.52-25.76Zm20.4-3.12q-.16.48-.32,1.12a4.461,4.461,0,0,1-.56,1.28q-.48,1.12-1,2.16t-1,2.16q-.32.88-.6,1.6a8.716,8.716,0,0,0-.44,1.6,7.374,7.374,0,0,0-.2,1.4q-.04.76-.04,1.4A3.142,3.142,0,0,0,133.6-14a3.113,3.113,0,0,0,2.28.4,12.77,12.77,0,0,0,4.48-1.28l1.2-.6a5.842,5.842,0,0,1,1.2-.44.983.983,0,0,1,.36.08,1.42,1.42,0,0,0,.52.08q-.88,1.12-1.6,2.16A4.837,4.837,0,0,1,140.2-12a8.593,8.593,0,0,1-5.28.88,5.433,5.433,0,0,1-3.76-2.28,6.3,6.3,0,0,1-1.28-4.28,12.353,12.353,0,0,1,.56-2.28q.4-1.16.72-2.44l1.76-3.84a30.566,30.566,0,0,1,2-3.68,5.384,5.384,0,0,0,.88-1.36q.32-.72.72-1.52a2.6,2.6,0,0,0,0-2,4.5,4.5,0,0,1-.88-.08,4.969,4.969,0,0,0-.96-.08q-1.92,0-3.96.08t-4.12.08a24.674,24.674,0,0,1-2.88-.16,14.052,14.052,0,0,1-2.8-.64,2.383,2.383,0,0,1-.84-.48,7.66,7.66,0,0,0-.84-.64,3.82,3.82,0,0,1,1.56-.56,13.447,13.447,0,0,1,1.4-.08h16.24a10.084,10.084,0,0,0,1.92-3.12q.64-1.04,1.28-2a17.887,17.887,0,0,0,1.12-1.92,1.065,1.065,0,0,0,.24-.36,1.065,1.065,0,0,1,.24-.36,2.374,2.374,0,0,1,1.12-.64,5.26,5.26,0,0,1,1.28-.16q.88,0,1.12.48a7.882,7.882,0,0,0,.64,1.04q-1.36,1.6-2.6,3.2a28.489,28.489,0,0,0-2.28,3.44,25.3,25.3,0,0,0,4.88.16q2.32-.16,4.64-.16a40.136,40.136,0,0,0,4.4.08q2.24-.08,4.32-.08,2.24.16,4.56.2t4.64.2a25.957,25.957,0,0,1-8.4,1.28q-2.24.16-4.36.32t-4.36.32q-2.4.16-4.88.24t-4.96.24h-.88a3.228,3.228,0,0,0-1.6.36,2.237,2.237,0,0,0-.96,1.32,10.5,10.5,0,0,1-.96,1.68,17.736,17.736,0,0,0-1.04,1.68h-.16q-.16.32-.24.52T136.92-28.88Zm8.4,12.72q.16-.48.24-.76a1,1,0,0,1,.24-.44,14.119,14.119,0,0,1,1.92-3.72,20.349,20.349,0,0,0,1.84-3,3.126,3.126,0,0,0,.24-.64,5.671,5.671,0,0,1,.24-.72q.16-.4.36-.8a1.775,1.775,0,0,1,.52-.64.75.75,0,0,1,.4-.48,5.534,5.534,0,0,1,.64-.16h.24a1.4,1.4,0,0,1,1.44.96q.24.24.08.8a3.7,3.7,0,0,1-.48.8q-.72,1.12-1.4,2a11,11,0,0,0-1.24,2.08q-.4.64-.88,1.6l-.8,1.6a2.26,2.26,0,0,0-.36.8,3.621,3.621,0,0,0-.2.88q-.08.16.24.24a2.188,2.188,0,0,0,.48.08,7.938,7.938,0,0,0,1.8-.48q1.08-.4,2.32-.92t2.52-1.2q1.28-.68,2.48-1.4a14.285,14.285,0,0,0,1.28-.64,3.28,3.28,0,0,1,1.28-.4q.16.08.16.4v.24a2.218,2.218,0,0,1-.64.68q-.4.28-.8.6-.88.72-2.28,1.68t-2.88,1.88q-1.48.92-2.88,1.68a17.894,17.894,0,0,1-2.28,1.08,2.93,2.93,0,0,1-1.92.16l-.72-.24a2.177,2.177,0,0,1-1.28-1.6q-.16-.24-.08-.32t0-.32a4.265,4.265,0,0,1,.08-.96.71.71,0,0,1,.08-.32Q145.4-16.24,145.32-16.16ZM152.28-30a.794.794,0,0,0,.08-.36.794.794,0,0,1,.08-.36,5.478,5.478,0,0,1,.4-1.12l.48-.96a.6.6,0,0,1,.2-.24,1.939,1.939,0,0,0,.28-.24,2.106,2.106,0,0,1,2.24.48q.72.72.24,1.28a4.935,4.935,0,0,1-1.2,1.76,2.79,2.79,0,0,1-1.76.88.557.557,0,0,1-.24-.04.355.355,0,0,0-.16-.04q-.56-.16-.56-.56A1.51,1.51,0,0,0,152.28-30Zm22.64,5.44a2.351,2.351,0,0,1-.08.56q0,.64.72.64h.8a7.371,7.371,0,0,1,1.72-.16,7.371,7.371,0,0,0,1.72-.16h1.12a.461.461,0,0,1,.16.32q.32.48-.08.72-.08.24-.2.28a.788.788,0,0,0-.28.2q-.32.32-.48.32a16.276,16.276,0,0,1-2.04.4,13.23,13.23,0,0,0-1.96.4,6.171,6.171,0,0,1-2.48.56,2.615,2.615,0,0,0-.28.16,2.615,2.615,0,0,1-.28.16.788.788,0,0,0-.2.28.5.5,0,0,1-.12.2,2.491,2.491,0,0,0-.32.52,1.065,1.065,0,0,1-.24.36,11.119,11.119,0,0,1-2.52,3.36q-1.64,1.52-3,2.56a3.156,3.156,0,0,1-1.6.64h-.56a1.289,1.289,0,0,1-.56-.16,2.694,2.694,0,0,1-1.44-.8,3.656,3.656,0,0,1-.72-1.44.614.614,0,0,1-.08-.24,1.838,1.838,0,0,1,.08-1.2,1.4,1.4,0,0,1,.2-.4.648.648,0,0,0,.12-.4,5.315,5.315,0,0,0,.4-.96q.32-1.12.6-1.84t.76-1.84l.48-1.12a10.964,10.964,0,0,1,.56-1.12,10,10,0,0,1,.68-1.04q.36-.48.76-.96.4-.64.72-1.2t.72-1.2a1.225,1.225,0,0,1,.88-.56,1.189,1.189,0,0,1,.88-.32q.88-.16,2-.32a1.957,1.957,0,0,1,1.76.48.708.708,0,0,0,.32.2.708.708,0,0,1,.32.2q.24.4.4.72t.4.72a4.943,4.943,0,0,1,.24.76,2.214,2.214,0,0,1,0,.84Zm-4.64,3.36a.633.633,0,0,0-.08-.4,5.009,5.009,0,0,1-.64-.96l-.48-.96a.866.866,0,0,0-.4-.32.633.633,0,0,0-.4-.08.655.655,0,0,0-.4.24,13.414,13.414,0,0,0-.8,1.28,22.446,22.446,0,0,0-1.36,2.88q-.48,1.28-.96,3.04v.24a.451.451,0,0,0-.04.32.189.189,0,0,0,.2.16q.24.16.4,0a6.654,6.654,0,0,0,2.88-2.16,25.869,25.869,0,0,0,2-2.88A.891.891,0,0,0,170.28-21.2Zm2.56-5.52a.461.461,0,0,0-.16-.32q-.32,0-.32.08A3.6,3.6,0,0,0,171-24.64a.364.364,0,0,0-.04.28.887.887,0,0,1,.04.28,1.4,1.4,0,0,0,.16.4.5.5,0,0,0,.36.16.5.5,0,0,0,.36-.16,3.18,3.18,0,0,0,.4-.48,2.56,2.56,0,0,0,.4-1.12l.16-1.28ZM189.72-14.4q.88-.56,1.8-1.12a11.518,11.518,0,0,0,1.72-1.28,15.042,15.042,0,0,1,2.12-1.32,20.011,20.011,0,0,0,2.2-1.32q.32-.16.68-.36a6.643,6.643,0,0,1,.76-.36q.4-.16.72-.32a6.209,6.209,0,0,1,.8-.32q.32-.08.16.24a.515.515,0,0,1,0,.4,3.1,3.1,0,0,0-.16.4l-1.68,1.28q-.24.16-.52.36t-.52.36l-3.04,2.88q-.96.88-1.96,1.76t-2.12,1.76a5.067,5.067,0,0,0-.76.56q-.36.32-.76.64-.32.24-.6.48a2.446,2.446,0,0,1-.44.32,1.671,1.671,0,0,1-1.76-.16l-.4-.32a7.537,7.537,0,0,1-.72-1.04,2.744,2.744,0,0,1,.08-1.44l.32-1.36q.4-1.12.72-2.16a21.7,21.7,0,0,1,.8-2.16l.72-2,.16-.8a.513.513,0,0,0-.32-.48.891.891,0,0,0-.4.08l-1.92,1.92a6.408,6.408,0,0,1-1.08,1,3.551,3.551,0,0,1-1.24.6,3.912,3.912,0,0,1-.4.24.906.906,0,0,0-.32.32,2.217,2.217,0,0,1-1.12.88l-.56.24q-.72.32-1.04-.48a1.5,1.5,0,0,1-.16-1.2,10.908,10.908,0,0,0,.52-1.2q.2-.56.44-1.12a10.96,10.96,0,0,0,.72-1.36,12.78,12.78,0,0,0,.56-1.52A3.556,3.556,0,0,1,182.2-24q.24-.72.56-1.44a12.783,12.783,0,0,0,.56-1.52,6.718,6.718,0,0,1,.36-.88q.2-.4.36-.8a.687.687,0,0,1,.72-.4h.8a3.692,3.692,0,0,1,.52.04.612.612,0,0,1,.44.28,1.225,1.225,0,0,1,.56,1.28,1.851,1.851,0,0,1-.16.76,1.85,1.85,0,0,0-.16.76.322.322,0,0,0,.32.16.891.891,0,0,0,.4-.08,8.065,8.065,0,0,1,1.4-1.12,8.065,8.065,0,0,0,1.4-1.12,3.4,3.4,0,0,1,2-.56,1.575,1.575,0,0,1,1.28.48,2.615,2.615,0,0,0,.16.28.493.493,0,0,1,.08.28q.24.48.16.64a8.3,8.3,0,0,1-.32,1.04l-2.8,6.08-1.44,3.68a2.611,2.611,0,0,0-.24,1.6.212.212,0,0,0,.24.24h.16v.08Zm26.56-33.76q.4-.16.84-.32a2.966,2.966,0,0,0,.84-.48q.64-.16.92-.2a.953.953,0,0,1,.68.28.964.964,0,0,1,.56.6,2.173,2.173,0,0,1,.16.68q-.16.4-.32.84a3.278,3.278,0,0,1-.32.68q-.48,1.36-1.12,2.76t-1.2,2.84l-1.44,4.08q-.72,1.84-1.44,3.52a19.929,19.929,0,0,0-1.12,3.44,27.2,27.2,0,0,0-1.2,3.16q-.48,1.56-.96,2.92-.32.64-.56,1.04a2.137,2.137,0,0,1-.8.72,1.443,1.443,0,0,0-.96.96.513.513,0,0,1-.48.32.2.2,0,0,1-.32,0l-.24-.16a4.969,4.969,0,0,0,.08-.96l.84-2.52.92-2.76a1.678,1.678,0,0,1,.24-.88,3.159,3.159,0,0,1,.48-1,2.183,2.183,0,0,0,.4-.84,40.408,40.408,0,0,1,1.52-4.6,40.408,40.408,0,0,0,1.52-4.6q.56-2.4,1.32-4.68A29.861,29.861,0,0,0,216.28-48.16ZM204.92-10.4a27.905,27.905,0,0,1,1.12-4.88q.16-.48.28-.8a1.436,1.436,0,0,1,.32-.52q.2-.2.48-.44t.84-.64a.916.916,0,0,0,.56.2,2.053,2.053,0,0,1,.72.2,2.11,2.11,0,0,1,.68.64.885.885,0,0,1,.2.88q-.48,1.36-.88,2.64a13.347,13.347,0,0,1-1.12,2.56,2.353,2.353,0,0,1-1.52,1.12,2.671,2.671,0,0,1-.92-.16A1.491,1.491,0,0,1,204.92-10.4Z" transform="matrix(0.985, -0.174, 0.174, 0.985, 1328.096, 9330.988)" fill="#111"/><path d="M5.44-17.36a15.216,15.216,0,0,0,2.32,3.92q1.44,1.76,2.88,3.36a4.136,4.136,0,0,1-.4.68,2.951,2.951,0,0,0-.32.52H9.36a3.833,3.833,0,0,1-1.84-1.2,2.706,2.706,0,0,1-.72-.64q-.32-.4-.72-.88-.64-.8-1.32-1.76T3.44-15.28a.677.677,0,0,0-.32-.28,1.523,1.523,0,0,1-.4-.28A8.959,8.959,0,0,0,1-14.8q-.84.64-1.48,1.04a13.849,13.849,0,0,0-1.68,1.08A13.849,13.849,0,0,1-3.84-11.6,8.088,8.088,0,0,1-5.8-10.56q-1.08.4-2.12.72a4.562,4.562,0,0,1-2.88-.12,7.278,7.278,0,0,1-2.4-1.64,1.066,1.066,0,0,1-.4-.48,1,1,0,0,0-.24-.4,3.233,3.233,0,0,1-.08-2.12,9.347,9.347,0,0,1,.96-2.04q.8-.96,1.44-1.8A17.169,17.169,0,0,1-10-20.16q1.36-1.28,2.68-2.4a34.47,34.47,0,0,1,2.84-2.16,2.062,2.062,0,0,0,.96-1.2A2.575,2.575,0,0,0-4-27.44a7.794,7.794,0,0,0-.88-1.16,11.128,11.128,0,0,1-.88-1.08,8.369,8.369,0,0,0-1.36-.48q-.64-.16-1.2-.32a1.077,1.077,0,0,1-.04-.76.858.858,0,0,1,.44-.52A10.012,10.012,0,0,0-5.68-33.2q1.04-.88,2-1.6A13.893,13.893,0,0,1-1.2-36.12a6.952,6.952,0,0,1,2.64-.52,7.975,7.975,0,0,1,2.52.08q1.24.24,2.52.56a3.478,3.478,0,0,1,1.72.72A8.064,8.064,0,0,1,9.44-34a4.969,4.969,0,0,1,.08.96q-.32.8-.56,1.28a13.763,13.763,0,0,1-1.4,1.64,9.775,9.775,0,0,1-1.8,1.4q-1.12.88-2.16,1.68T1.44-25.36a1.094,1.094,0,0,0-.4.28,2.8,2.8,0,0,1-.32.36q.64,1.04,1.24,1.92T3.2-20.88a.972.972,0,0,0,.52.48,1.341,1.341,0,0,0,.76-.08,4.2,4.2,0,0,1,.72-.48,1.588,1.588,0,0,0,.56-.48,9.558,9.558,0,0,0,1.56-.88,9.559,9.559,0,0,1,1.56-.88,1.06,1.06,0,0,0,.52-.16q.28-.16.6-.32.64-.32,1.2-.56a4.136,4.136,0,0,0,.96-.56.7.7,0,0,1,.4.2q.24.2.08.36a7.462,7.462,0,0,1-.52,1.6,2.5,2.5,0,0,1-1.08,1.2A14.146,14.146,0,0,1,9.08-20.2q-1,.52-2.04,1.16-.48.4-.88.76A3.679,3.679,0,0,0,5.44-17.36Zm-7.2-5.6q-.48.4-.92.76t-.84.76A12.872,12.872,0,0,0-5.96-19.4q-1.08,1.16-2.12,2.44-.4.64-.88,1.28a11.873,11.873,0,0,0-.88,1.36.716.716,0,0,0-.2.4,3.159,3.159,0,0,1-.12.48.425.425,0,0,0,.04.52q.2.28.36.12a9.61,9.61,0,0,0,1.56-.56q.68-.32,1.48-.64,1.84-1.12,3.4-2.16t3.4-2.16q.16-.16.24-.16t.24-.16a1.241,1.241,0,0,0,.24-.88,16.53,16.53,0,0,0-1-1.56q-.6-.84-1-1.48a.189.189,0,0,0-.16-.2A1.379,1.379,0,0,1-1.76-22.96Zm1.12-4.8A3.346,3.346,0,0,1,0-28.52q.4-.36.8-.76a3.5,3.5,0,0,0,.72-.8A12.372,12.372,0,0,0,3.2-31.56a16.973,16.973,0,0,0,1.44-1.72v-.16a.89.89,0,0,1,.08-.4l-.08-.08a.163.163,0,0,1-.12-.04A.163.163,0,0,0,4.4-34a8.623,8.623,0,0,0-3.84.4q-1.12.56-2.2,1.24t-2.2,1.4v.36a.5.5,0,0,0,.16.36,1.956,1.956,0,0,1,1.12.64q.4.48.8,1.04a2.427,2.427,0,0,0,.52.36A2.688,2.688,0,0,1-.64-27.76Z" transform="matrix(0.985, -0.174, 0.174, 0.985, 1282.096, 9339.988)" fill="#8d2b0a"/></g></svg>