<svg xmlns="http://www.w3.org/2000/svg" width="162.373" height="40.906" viewBox="0 0 162.373 40.906"><path d="M35.957,0h-8.2V-17.062h-16V0h-8.2V-39.812h8.2V-23.68h16V-39.812h8.2ZM78.624-19A24.034,24.034,0,0,1,76.546-8.7,15.65,15.65,0,0,1,70.6-1.859,16.451,16.451,0,0,1,61.726.547a16.563,16.563,0,0,1-8.832-2.379,15.8,15.8,0,0,1-6.016-6.795,23.346,23.346,0,0,1-2.16-10.158v-1.969A23.907,23.907,0,0,1,46.837-31.1a15.778,15.778,0,0,1,5.988-6.863,16.472,16.472,0,0,1,8.846-2.393,16.472,16.472,0,0,1,8.846,2.393A15.778,15.778,0,0,1,76.505-31.1a23.84,23.84,0,0,1,2.119,10.322Zm-8.312-1.8q0-6.262-2.242-9.516a7.307,7.307,0,0,0-6.4-3.254A7.309,7.309,0,0,0,55.3-30.365q-2.242,3.213-2.27,9.42V-19q0,6.1,2.242,9.461A7.288,7.288,0,0,0,61.726-6.18,7.222,7.222,0,0,0,68.07-9.42q2.215-3.24,2.242-9.447Zm27.792-19L108.33-10.937,118.5-39.812h10.773V0h-8.23V-10.883l.82-18.785L111.12,0h-5.633L94.768-29.641l.82,18.758V0h-8.2V-39.812Zm65.089,22.559h-15.75V-6.59h18.484V0H139.24V-39.812h26.633v6.645h-18.43v9.488h15.75Z" transform="translate(-3.555 40.359)" fill="#111"/></svg>