<svg xmlns="http://www.w3.org/2000/svg" width="227.12" height="30.68" viewBox="0 0 227.12 30.68"><path d="M26.106-9.946a10.566,10.566,0,0,1-3.558,7.588A12.5,12.5,0,0,1,14.089.41,11.236,11.236,0,0,1,5.055-3.456Q1.764-7.321,1.764-14.068v-1.825a17.9,17.9,0,0,1,1.518-7.588,11.373,11.373,0,0,1,4.337-5.035,12.15,12.15,0,0,1,6.552-1.753A12.173,12.173,0,0,1,22.5-27.5a11.355,11.355,0,0,1,3.65,7.772H20a6.236,6.236,0,0,0-1.61-4.194,5.961,5.961,0,0,0-4.214-1.3,5.227,5.227,0,0,0-4.6,2.2Q8.039-20.815,8-16.181v2.256Q8-9.085,9.464-6.85a5.131,5.131,0,0,0,4.625,2.235,6.074,6.074,0,0,0,4.255-1.3,5.882,5.882,0,0,0,1.61-4.03Zm30.667-4.307a18.025,18.025,0,0,1-1.559,7.731,11.738,11.738,0,0,1-4.46,5.127A12.338,12.338,0,0,1,44.1.41a12.422,12.422,0,0,1-6.624-1.784,11.853,11.853,0,0,1-4.512-5.1,17.51,17.51,0,0,1-1.62-7.619v-1.477a17.931,17.931,0,0,1,1.589-7.762,11.834,11.834,0,0,1,4.491-5.147,12.354,12.354,0,0,1,6.634-1.794,12.354,12.354,0,0,1,6.634,1.794,11.834,11.834,0,0,1,4.491,5.147,17.88,17.88,0,0,1,1.589,7.742Zm-6.234-1.354q0-4.7-1.682-7.137a5.48,5.48,0,0,0-4.8-2.44,5.482,5.482,0,0,0-4.778,2.41q-1.682,2.41-1.7,7.065v1.456a12.723,12.723,0,0,0,1.682,7.1A5.466,5.466,0,0,0,44.1-4.635a5.417,5.417,0,0,0,4.758-2.43q1.661-2.43,1.682-7.085ZM87.626,0H81.473L69.5-19.646V0H63.345V-29.859H69.5l12,19.688V-29.859h6.132Zm29.355-24.876h-9.146V0h-6.152V-24.876H92.658v-4.983h24.322ZM140.552-12.94H128.74v8H142.6V0H122.588V-29.859h19.975v4.983H128.74v7.116h11.813ZM172.594,0h-6.152L154.465-19.646V0h-6.152V-29.859h6.152l12,19.688V-29.859h6.132Zm29.355-24.876H192.8V0H186.65V-24.876h-9.023v-4.983h24.322ZM222.711-7.834a3.157,3.157,0,0,0-1.23-2.676,16.139,16.139,0,0,0-4.43-1.969,31.4,31.4,0,0,1-5.065-2.041q-5.086-2.748-5.086-7.4a7.21,7.21,0,0,1,1.364-4.317A8.9,8.9,0,0,1,212.18-29.2a14.743,14.743,0,0,1,5.732-1.066,13.419,13.419,0,0,1,5.7,1.159A9.078,9.078,0,0,1,227.5-25.84a8.559,8.559,0,0,1,1.384,4.8h-6.152a4.026,4.026,0,0,0-1.292-3.189,5.311,5.311,0,0,0-3.63-1.138,5.674,5.674,0,0,0-3.507.954,3.008,3.008,0,0,0-1.251,2.512,2.881,2.881,0,0,0,1.466,2.44,16.566,16.566,0,0,0,4.317,1.846q5.25,1.579,7.649,3.917a7.8,7.8,0,0,1,2.4,5.824,7.186,7.186,0,0,1-2.933,6.081,12.838,12.838,0,0,1-7.9,2.2A15.247,15.247,0,0,1,211.78-.851a9.93,9.93,0,0,1-4.317-3.456,8.849,8.849,0,0,1-1.487-5.086h6.173q0,4.942,5.906,4.942a5.745,5.745,0,0,0,3.425-.892A2.9,2.9,0,0,0,222.711-7.834Z" transform="translate(-1.764 30.27)" fill="#ea5429"/></svg>