<svg xmlns="http://www.w3.org/2000/svg" width="295.784" height="30.68" viewBox="0 0 295.784 30.68"><path d="M9.208,0H3.056V-29.859H9.208ZM41.29,0H35.138L23.162-19.646V0H17.009V-29.859h6.152l12,19.688V-29.859H41.29ZM66.728-12.2H54.916V0H48.763V-29.859H68.2v4.983H54.916v7.711H66.728ZM98.4-14.253a18.025,18.025,0,0,1-1.559,7.731,11.738,11.738,0,0,1-4.46,5.127A12.338,12.338,0,0,1,85.727.41,12.422,12.422,0,0,1,79.1-1.374a11.853,11.853,0,0,1-4.512-5.1,17.51,17.51,0,0,1-1.62-7.619v-1.477a17.931,17.931,0,0,1,1.589-7.762,11.834,11.834,0,0,1,4.491-5.147,12.354,12.354,0,0,1,6.634-1.794,12.354,12.354,0,0,1,6.634,1.794,11.834,11.834,0,0,1,4.491,5.147A17.88,17.88,0,0,1,98.4-15.586Zm-6.234-1.354q0-4.7-1.682-7.137a5.48,5.48,0,0,0-4.8-2.44,5.482,5.482,0,0,0-4.778,2.41q-1.682,2.41-1.7,7.065v1.456a12.723,12.723,0,0,0,1.682,7.1,5.466,5.466,0,0,0,4.84,2.522,5.417,5.417,0,0,0,4.758-2.43q1.661-2.43,1.682-7.085Zm23.859,4.676h-4.9V0h-6.152V-29.859h11.095q5.291,0,8.162,2.358a8.14,8.14,0,0,1,2.871,6.665,9.186,9.186,0,0,1-1.323,5.1,9.021,9.021,0,0,1-4.009,3.25l6.46,12.2V0h-6.6Zm-4.9-4.983h4.963a5.081,5.081,0,0,0,3.589-1.179,4.215,4.215,0,0,0,1.271-3.25,4.511,4.511,0,0,0-1.2-3.322,4.986,4.986,0,0,0-3.681-1.21h-4.942Zm30.79-13.945L149.584-8.2l7.629-21.656h8.08V0H159.12V-8.162l.615-14.089L151.676,0h-4.225l-8.039-22.23.615,14.068V0h-6.152V-29.859ZM189.993-6.152H179.205L177.155,0h-6.542l11.115-29.859h5.7L198.606,0h-6.542Zm-9.126-4.983h7.465l-3.753-11.177Zm42.644-13.74h-9.146V0h-6.152V-24.876h-9.023v-4.983h24.322ZM235.659,0h-6.152V-29.859h6.152Zm32.329-14.253a18.025,18.025,0,0,1-1.559,7.731,11.738,11.738,0,0,1-4.46,5.127,12.338,12.338,0,0,1-6.655,1.8,12.422,12.422,0,0,1-6.624-1.784,11.853,11.853,0,0,1-4.512-5.1,17.51,17.51,0,0,1-1.62-7.619v-1.477a17.931,17.931,0,0,1,1.589-7.762,11.834,11.834,0,0,1,4.491-5.147,12.354,12.354,0,0,1,6.634-1.794,12.354,12.354,0,0,1,6.634,1.794,11.834,11.834,0,0,1,4.491,5.147,17.88,17.88,0,0,1,1.589,7.742Zm-6.234-1.354q0-4.7-1.682-7.137a5.48,5.48,0,0,0-4.8-2.44,5.482,5.482,0,0,0-4.778,2.41q-1.682,2.41-1.7,7.065v1.456a12.723,12.723,0,0,0,1.682,7.1,5.466,5.466,0,0,0,4.84,2.522,5.417,5.417,0,0,0,4.758-2.43q1.661-2.43,1.682-7.085ZM298.84,0h-6.152L280.711-19.646V0h-6.152V-29.859h6.152l12,19.688V-29.859h6.132Z" transform="translate(-3.056 30.27)" fill="#ea5429"/></svg>