<svg xmlns="http://www.w3.org/2000/svg" width="213.441" height="30.68" viewBox="0 0 213.441 30.68"><path d="M19.523-6.152H8.736L6.686,0H.144L11.259-29.859h5.7L28.137,0H21.595ZM10.4-11.136h7.465L14.109-22.312ZM33.026,0V-29.859H43.485q5.435,0,8.244,2.082a7.118,7.118,0,0,1,2.81,6.1,6.746,6.746,0,0,1-1.128,3.866,6.515,6.515,0,0,1-3.138,2.451,6.3,6.3,0,0,1,3.62,2.317,6.851,6.851,0,0,1,1.323,4.266,7.88,7.88,0,0,1-2.748,6.521Q49.719-.041,44.633,0Zm6.152-13v8.06h5.271a5.086,5.086,0,0,0,3.394-1.036,3.551,3.551,0,0,0,1.22-2.861q0-4.1-4.245-4.163Zm0-4.348h4.553q4.655-.082,4.655-3.712a3.43,3.43,0,0,0-1.179-2.922,6.2,6.2,0,0,0-3.722-.892H39.178Zm47.279,3.1A18.025,18.025,0,0,1,84.9-6.521a11.738,11.738,0,0,1-4.46,5.127A12.338,12.338,0,0,1,73.783.41a12.422,12.422,0,0,1-6.624-1.784,11.853,11.853,0,0,1-4.512-5.1,17.51,17.51,0,0,1-1.62-7.619v-1.477a17.931,17.931,0,0,1,1.589-7.762,11.834,11.834,0,0,1,4.491-5.147,12.354,12.354,0,0,1,6.634-1.794,12.354,12.354,0,0,1,6.634,1.794,11.834,11.834,0,0,1,4.491,5.147,17.88,17.88,0,0,1,1.589,7.742Zm-6.234-1.354q0-4.7-1.682-7.137a5.48,5.48,0,0,0-4.8-2.44,5.482,5.482,0,0,0-4.778,2.41q-1.682,2.41-1.7,7.065v1.456a12.723,12.723,0,0,0,1.682,7.1,5.466,5.466,0,0,0,4.84,2.522,5.417,5.417,0,0,0,4.758-2.43Q80.2-9.5,80.222-14.15Zm35.4-14.253v19.667a10.069,10.069,0,0,1-3.066,7.752Q109.5.41,104.184.41a11.953,11.953,0,0,1-8.306-2.769A9.9,9.9,0,0,1,92.74-9.967V-29.859h6.152v19.708a5.689,5.689,0,0,0,1.4,4.276,5.393,5.393,0,0,0,3.886,1.343q5.188,0,5.271-5.455V-29.859Zm29.621,4.983H136.1V0H129.95V-24.876h-9.023v-4.983h24.322Zm39.535-4.983v19.667a10.069,10.069,0,0,1-3.066,7.752Q178.652.41,173.34.41a11.953,11.953,0,0,1-8.306-2.769A9.9,9.9,0,0,1,161.9-9.967V-29.859h6.152v19.708a5.689,5.689,0,0,0,1.4,4.276,5.393,5.393,0,0,0,3.886,1.343q5.188,0,5.271-5.455V-29.859ZM207.412-7.834a3.157,3.157,0,0,0-1.23-2.676,16.139,16.139,0,0,0-4.43-1.969,31.4,31.4,0,0,1-5.065-2.041q-5.086-2.748-5.086-7.4a7.21,7.21,0,0,1,1.364-4.317,8.9,8.9,0,0,1,3.917-2.963,14.743,14.743,0,0,1,5.732-1.066,13.419,13.419,0,0,1,5.7,1.159A9.078,9.078,0,0,1,212.2-25.84a8.559,8.559,0,0,1,1.384,4.8h-6.152a4.026,4.026,0,0,0-1.292-3.189,5.311,5.311,0,0,0-3.63-1.138,5.674,5.674,0,0,0-3.507.954,3.008,3.008,0,0,0-1.251,2.512,2.881,2.881,0,0,0,1.466,2.44,16.566,16.566,0,0,0,4.317,1.846q5.25,1.579,7.649,3.917a7.8,7.8,0,0,1,2.4,5.824,7.186,7.186,0,0,1-2.933,6.081,12.838,12.838,0,0,1-7.9,2.2,15.247,15.247,0,0,1-6.275-1.261,9.93,9.93,0,0,1-4.317-3.456,8.849,8.849,0,0,1-1.487-5.086h6.173q0,4.942,5.906,4.942a5.745,5.745,0,0,0,3.425-.892A2.9,2.9,0,0,0,207.412-7.834Z" transform="translate(-0.144 30.27)" fill="#ea5429"/></svg>